<?xml version="1.0" standalone="no"?>
<!DOCTYPE svg PUBLIC "-//W3C//DTD SVG 20010904//EN"
 "http://www.w3.org/TR/2001/REC-SVG-20010904/DTD/svg10.dtd">
<svg version="1.0" xmlns="http://www.w3.org/2000/svg"
 width="141.000000pt" height="141.000000pt" viewBox="0 0 141.000000 141.000000"
 preserveAspectRatio="xMidYMid meet">
<metadata>
Created by potrace 1.11, written by Peter Selinger 2001-2013
</metadata>
<g transform="translate(0.000000,141.000000) scale(0.100000,-0.100000)"
fill="#000000" stroke="none">
<path d="M694 1146 c-3 -8 -17 -12 -33 -11 -26 2 -28 -1 -26 -27 2 -21 0 -26
-10 -18 -6 5 -16 6 -20 2 -5 -4 -5 -1 -1 6 4 7 12 9 18 6 7 -4 8 -2 4 4 -5 9
-12 9 -26 0 -10 -7 -16 -16 -14 -20 3 -4 -6 -4 -20 2 -14 5 -27 7 -27 5 -1 -3
-2 -9 -3 -15 0 -5 -10 -16 -21 -25 -20 -16 -19 -16 3 -5 26 13 29 3 5 -17 -10
-8 -12 -12 -5 -8 18 9 15 -30 -5 -46 -15 -13 -15 -12 -5 7 9 16 8 21 -3 21 -8
0 -14 -3 -13 -6 2 -22 -5 -31 -22 -31 -16 0 -20 -7 -20 -31 0 -16 -4 -28 -8
-25 -5 3 -9 -1 -9 -9 0 -8 4 -12 7 -10 4 3 8 -6 8 -20 0 -14 -4 -22 -9 -19 -5
3 -9 0 -9 -5 0 -6 5 -11 10 -11 6 0 10 -5 10 -11 0 -5 -6 -7 -12 -3 -10 6 -10
4 0 -8 11 -14 10 -18 -5 -28 -16 -10 -16 -11 0 -6 10 3 17 0 17 -9 0 -7 -8
-16 -17 -18 -16 -4 -16 -5 -1 -6 13 -1 17 -10 16 -43 0 -23 5 -44 11 -46 6 -2
9 -8 5 -13 -7 -13 19 -7 28 6 5 6 8 4 8 -5 0 -13 2 -13 9 -1 7 10 14 12 23 5
7 -6 26 -16 42 -23 26 -11 28 -10 17 3 -10 12 -9 14 11 9 13 -3 29 -11 37 -17
8 -6 24 -11 35 -11 13 0 20 -6 19 -16 -3 -16 33 -24 42 -8 3 5 -1 6 -9 3 -11
-4 -16 0 -16 12 0 11 4 15 8 9 10 -14 46 -19 37 -6 -4 7 0 8 10 5 12 -5 13 -9
4 -20 -8 -10 -8 -14 0 -14 6 0 12 6 12 13 1 6 2 19 3 27 0 8 7 14 14 12 6 -1
12 2 12 7 0 5 14 7 31 4 17 -2 37 1 46 9 13 10 17 10 20 1 3 -7 9 -13 14 -13
6 0 7 5 4 10 -4 6 -3 10 2 9 24 -4 43 3 43 16 0 8 6 15 13 15 8 0 8 3 1 8 -12
8 -13 51 -1 70 5 7 4 12 -2 12 -6 0 -11 4 -11 10 0 5 6 7 14 4 8 -3 17 -1 20
4 3 5 -2 9 -11 8 -10 0 -17 7 -18 21 -1 12 2 20 7 17 4 -3 8 0 8 5 0 6 -4 11
-10 11 -5 0 -10 5 -10 11 0 5 5 7 11 3 7 -4 7 1 -1 16 -7 12 -8 20 -3 17 5 -4
10 0 10 8 0 8 -5 11 -10 8 -6 -4 -8 3 -5 15 4 12 2 22 -4 22 -5 0 -7 4 -4 8 3
5 -7 8 -22 7 -36 -2 -51 15 -48 53 1 17 -2 28 -7 25 -4 -3 -7 2 -5 10 2 9 -1
17 -7 18 -5 1 -20 5 -33 10 -15 6 -32 5 -45 -2 -19 -9 -18 -7 3 10 24 20 24
20 2 14 -17 -4 -21 -2 -16 10 3 8 0 18 -7 23 -7 4 -10 3 -5 -4 6 -9 -2 -10
-67 -3 -5 1 -5 6 -2 11 3 6 4 10 0 10 -3 0 -8 -6 -11 -14z"/>
<path d="M837 1109 c7 -7 15 -10 18 -7 3 3 -2 9 -12 12 -14 6 -15 5 -6 -5z"/>
<path d="M906 1011 c-3 -5 1 -11 9 -14 9 -4 12 -1 8 9 -6 16 -10 17 -17 5z"/>
<path d="M420 720 c-6 -11 -8 -20 -6 -20 3 0 10 9 16 20 6 11 8 20 6 20 -3 0
-10 -9 -16 -20z"/>
<path d="M130 650 c0 -5 5 -10 11 -10 5 0 7 5 4 10 -3 6 -8 10 -11 10 -2 0 -4
-4 -4 -10z"/>
<path d="M1147 649 c7 -7 15 -10 18 -7 3 3 -2 9 -12 12 -14 6 -15 5 -6 -5z"/>
<path d="M1235 647 c-20 -11 -29 -13 -80 -16 -18 -1 -25 -7 -25 -22 0 -11 4
-18 9 -15 5 3 11 -1 15 -9 3 -8 1 -17 -4 -20 -4 -3 -11 1 -13 7 -3 7 -6 3 -6
-9 -1 -12 -6 -25 -12 -29 -8 -5 -8 -9 1 -14 8 -5 7 -9 -5 -13 -10 -4 -14 -3
-10 3 4 7 -3 9 -18 6 -21 -4 -25 -1 -22 14 2 10 -3 24 -11 31 -8 6 -14 8 -14
4 0 -4 -6 -3 -13 3 -10 9 -13 5 -11 -18 1 -17 -2 -28 -7 -25 -4 3 -5 13 -2 22
5 12 2 15 -8 11 -8 -3 -23 0 -33 7 -20 15 -61 11 -91 -9 -11 -7 -24 -13 -30
-14 -5 0 -12 -9 -16 -19 -7 -15 -8 -16 -8 -1 -1 9 11 25 25 35 23 17 23 19 5
19 -11 0 -17 -4 -15 -8 3 -4 0 -8 -5 -8 -6 0 -14 0 -18 0 -5 0 -8 4 -8 9 0 5
-4 13 -9 18 -5 5 -6 3 -2 -5 6 -10 1 -13 -20 -11 -52 4 -64 0 -57 -18 5 -12 3
-14 -8 -8 -8 5 -5 -1 5 -13 23 -27 25 -27 19 -3 -4 16 -1 19 16 14 12 -3 21
-10 21 -15 0 -6 -7 -8 -15 -4 -8 3 -14 0 -12 -6 1 -5 -6 -12 -15 -13 -10 -2
-18 1 -18 7 0 7 -4 7 -13 0 -10 -9 -12 -4 -9 23 4 30 1 35 -17 35 -12 0 -21
-6 -21 -15 0 -8 -6 -15 -12 -15 -9 0 -10 -3 -2 -8 18 -12 13 -41 -8 -39 -10 1
-18 5 -18 9 0 4 -5 8 -12 8 -14 0 7 -24 22 -26 6 -1 16 -2 23 -3 8 -1 7 -4 -3
-11 -8 -5 -11 -10 -6 -10 5 0 3 -7 -4 -15 -10 -12 -16 -13 -26 -4 -12 9 -12
15 -2 27 11 13 10 15 -3 10 -12 -5 -15 2 -14 37 2 36 -2 45 -21 54 -17 7 -25
7 -30 -1 -4 -7 -3 -8 4 -4 8 4 10 2 6 -7 -6 -17 -36 -16 -42 1 -2 7 -9 9 -15
5 -6 -4 -8 0 -4 10 3 9 2 19 -4 22 -5 4 -8 1 -7 -7 2 -8 -7 -13 -22 -14 -29
-2 -86 -25 -89 -36 0 -5 -3 -8 -6 -8 -3 0 -9 0 -15 0 -5 0 -10 5 -10 11 0 5 4
7 10 4 6 -3 10 -1 10 5 0 7 -8 9 -22 4 -21 -6 -22 -6 -8 12 14 18 14 18 -3 5
-16 -13 -20 -13 -28 0 -5 8 -9 10 -9 5 0 -6 -7 -1 -15 10 -12 15 -14 15 -9 2
5 -14 1 -16 -22 -12 -16 3 -26 2 -22 -1 3 -3 -4 -17 -16 -30 -45 -50 -60 -75
-34 -59 7 4 8 3 4 -4 -4 -6 -14 -9 -24 -6 -9 3 -6 -2 8 -10 14 -8 21 -15 16
-16 -5 0 8 -13 29 -30 20 -16 41 -27 46 -24 5 3 9 -1 9 -8 0 -10 2 -10 8 -1 5
7 20 14 35 15 15 1 27 7 27 12 0 5 7 1 16 -10 8 -10 13 -13 9 -7 -3 7 -2 20 3
29 6 12 9 8 9 -15 0 -17 -4 -31 -8 -31 -4 0 -9 -7 -12 -14 -4 -11 -1 -13 10
-9 11 4 14 3 9 -5 -10 -16 22 -28 37 -13 12 12 31 15 23 3 -2 -4 3 -8 12 -8 9
-1 26 -5 36 -9 11 -5 17 -5 14 1 -4 5 9 9 27 9 18 0 31 -3 29 -7 -3 -4 -1 -8
5 -8 5 0 13 5 16 10 5 8 11 7 21 -1 11 -9 14 -9 14 1 0 7 7 10 18 5 32 -12 36
-10 37 23 2 25 -1 32 -12 28 -8 -4 -19 -6 -24 -6 -6 0 -7 -5 -3 -11 4 -7 1
-10 -7 -7 -8 3 -13 10 -12 16 1 5 -4 13 -12 16 -9 3 -12 0 -9 -8 3 -8 1 -17
-5 -21 -6 -3 -11 1 -11 11 0 17 -1 17 -13 0 -16 -21 -51 -11 -42 12 5 13 2 12
-14 -2 -11 -10 -25 -15 -30 -11 -6 3 -14 0 -17 -9 -3 -8 -12 -12 -20 -9 -8 3
-12 9 -9 13 3 5 1 11 -5 15 -6 4 -8 11 -4 16 3 6 10 6 17 1 7 -5 20 -8 30 -7
9 2 17 -2 17 -8 0 -9 2 -9 8 0 13 20 80 45 87 32 12 -18 49 -27 74 -17 17 6
31 4 50 -8 14 -9 21 -11 15 -4 -13 13 -7 50 8 50 5 0 8 -8 7 -17 -3 -31 1 -43
12 -43 5 0 8 3 6 8 -3 4 7 8 21 8 46 2 77 11 75 22 -3 14 19 10 48 -9 13 -8
34 -14 46 -13 12 1 20 -3 17 -7 -3 -5 -1 -9 5 -9 5 0 11 3 13 8 2 4 19 18 38
31 19 14 29 18 23 9 -7 -8 -9 -18 -5 -22 4 -4 8 -16 8 -27 1 -10 2 -26 3 -35
1 -10 9 -14 23 -12 19 3 22 9 23 55 0 37 5 58 18 70 18 17 19 17 32 -1 12 -16
12 -22 2 -35 -9 -12 -9 -13 1 -7 6 4 12 2 12 -3 0 -6 9 -11 20 -11 11 0 20 7
20 16 0 11 6 14 23 9 21 -6 21 -5 2 7 -24 16 -30 35 -14 54 7 8 7 14 1 14 -5
0 -12 9 -15 20 -3 11 -1 20 5 20 5 0 6 6 1 13 -13 20 -12 35 3 41 8 3 14 1 14
-5 0 -6 4 -8 9 -4 5 3 12 1 15 -4 4 -5 2 -13 -4 -16 -7 -4 -7 -11 -2 -18 5 -7
8 -42 7 -79 l-2 -68 28 0 c15 0 31 5 35 12 4 7 3 8 -4 4 -15 -9 -16 19 -1 46
6 11 7 18 1 15 -5 -4 -9 17 -8 52 1 40 5 57 12 54 7 -2 15 0 18 6 4 5 18 8 31
5 20 -3 25 0 25 16 0 20 -7 24 -48 22 -21 -1 -22 1 -11 16 11 14 10 14 -8 -1
-12 -10 -30 -17 -40 -14 -16 4 -16 5 0 6 9 0 17 6 17 11 0 12 0 12 -25 -3z
m-988 -121 c-17 -13 -16 -14 6 -12 17 1 23 5 19 16 -5 13 -4 13 10 0 9 -8 14
-18 12 -22 -2 -4 0 -10 6 -13 8 -5 7 -11 -1 -21 -6 -8 -8 -14 -3 -14 18 0 -14
-21 -39 -26 -20 -3 -27 0 -27 11 0 8 -4 15 -9 15 -16 0 -4 53 15 67 10 7 20
13 23 13 3 0 -2 -7 -12 -14z m204 4 c0 10 2 11 6 2 2 -6 8 -10 13 -7 5 3 7 -3
5 -12 -1 -10 3 -24 9 -32 9 -12 8 -13 -3 -7 -10 7 -12 3 -6 -13 6 -21 5 -22
-37 -24 -13 -1 -26 -5 -29 -10 -4 -6 -6 14 -5 42 2 53 22 83 38 58 6 -9 8 -8
9 3z m504 -10 c16 -18 16 -20 2 -20 -10 0 -17 -6 -17 -12 0 -9 -4 -8 -10 2
-14 22 -12 30 8 24 14 -5 15 -4 2 5 -11 8 -18 7 -26 -4 -6 -8 -15 -11 -19 -7
-5 4 -5 1 -1 -6 4 -7 12 -10 17 -7 5 4 9 4 9 1 0 -2 3 -13 6 -23 6 -15 4 -16
-7 -5 -17 16 -26 15 -26 -2 0 -8 6 -12 14 -9 7 3 13 -1 13 -8 1 -8 8 -2 16 14
8 15 20 27 27 26 8 0 7 -2 -2 -6 -11 -5 -11 -7 0 -14 11 -7 11 -9 1 -9 -7 0
-10 -5 -6 -12 4 -6 3 -8 -4 -4 -5 3 -12 1 -14 -5 -2 -7 -12 -7 -30 0 -20 7
-26 16 -23 31 2 11 0 20 -6 20 -5 0 -4 9 3 19 7 11 15 18 19 15 4 -2 10 0 14
6 9 15 20 12 40 -10z m-225 -46 c0 -12 -4 -12 -19 -2 -11 7 -18 15 -15 20 7
11 34 -3 34 -18z m46 -28 c1 -9 -6 -13 -20 -12 -35 5 -66 17 -66 27 0 6 7 6
19 0 14 -8 22 -7 32 5 13 16 31 6 35 -20z"/>
<path d="M225 489 c-8 -12 10 -19 25 -9 9 5 19 5 26 -1 8 -7 14 -6 19 1 7 12
8 12 -33 15 -18 1 -35 -1 -37 -6z"/>
<path d="M245 459 c-4 -6 -4 -13 -1 -16 3 -4 6 -1 6 5 0 7 5 12 11 12 5 0 7
-4 4 -10 -3 -6 1 -7 10 -3 13 5 14 7 3 14 -18 12 -26 11 -33 -2z"/>
<path d="M414 496 c0 -14 4 -22 8 -20 5 3 5 10 2 16 -5 7 -2 9 8 6 19 -8 45 7
29 16 -6 4 -11 2 -11 -5 0 -10 -3 -10 -12 -1 -18 18 -24 15 -24 -12z"/>
<path d="M442 470 c-12 -12 -22 -24 -22 -27 0 -4 11 4 25 17 23 22 29 30 22
30 -2 0 -13 -9 -25 -20z"/>
<path d="M745 459 c-4 -6 -4 -13 -1 -16 3 -4 6 -1 6 6 0 7 5 9 12 5 7 -4 8 -3
4 4 -9 15 -13 15 -21 1z"/>
<path d="M84 630 c-16 -3 -28 -7 -26 -10 2 -3 7 -22 11 -42 8 -32 6 -38 -8
-39 -12 0 -12 -2 4 -9 11 -5 14 -9 7 -9 -7 -1 -11 -5 -8 -9 3 -5 6 -32 7 -60
2 -47 5 -52 26 -52 14 0 23 6 23 16 0 9 5 12 13 8 10 -6 10 -4 0 7 -19 20 -16
33 5 18 9 -7 7 -2 -6 13 -17 19 -20 28 -11 33 8 6 10 4 4 -5 -6 -9 -4 -11 4
-6 9 6 8 12 -4 26 -11 12 -13 20 -5 25 7 4 8 11 1 18 -18 23 11 43 60 41 32
-1 46 3 46 12 0 7 -4 11 -8 8 -4 -2 -9 1 -11 8 -4 12 -74 17 -124 8z"/>
<path d="M515 630 c-3 -5 -1 -10 4 -10 6 0 11 5 11 10 0 6 -2 10 -4 10 -3 0
-8 -4 -11 -10z"/>
<path d="M820 631 c-8 -6 -19 -7 -25 -3 -5 3 -4 -2 4 -11 7 -9 16 -17 19 -17
3 0 2 3 -1 7 -4 3 1 12 11 19 19 15 14 18 -8 5z"/>
<path d="M849 613 c-13 -16 -12 -17 4 -4 16 13 21 21 13 21 -2 0 -10 -8 -17
-17z"/>
<path d="M655 599 c-4 -6 -5 -12 -2 -15 2 -3 7 2 10 11 7 17 1 20 -8 4z"/>
<path d="M130 574 c-7 -8 -9 -14 -4 -15 5 0 21 -2 36 -4 30 -4 46 9 27 21 -8
4 -9 3 -5 -4 4 -7 2 -12 -3 -12 -6 0 -11 4 -11 9 0 16 -28 20 -40 5z"/>
<path d="M1096 577 c3 -10 9 -15 12 -12 3 3 0 11 -7 18 -10 9 -11 8 -5 -6z"/>
<path d="M1174 569 c-2 -4 0 -10 5 -14 5 -3 8 -14 6 -25 -2 -11 1 -22 6 -26 6
-4 6 -11 -2 -20 -10 -12 -9 -18 3 -30 13 -13 15 -13 15 0 0 8 -4 13 -9 10 -4
-3 -8 0 -8 5 0 6 4 11 9 11 11 0 9 56 -2 66 -4 4 -2 12 3 19 7 8 5 12 -6 12
-8 0 -17 -4 -20 -8z"/>
<path d="M1090 539 c0 -5 -5 -7 -12 -3 -7 4 -8 3 -4 -5 6 -9 11 -9 22 0 17 14
18 19 4 19 -5 0 -10 -5 -10 -11z"/>
<path d="M127 533 c-4 -6 -1 -13 6 -16 17 -7 44 9 34 20 -5 4 -12 1 -16 -6 -7
-11 -9 -11 -13 0 -3 9 -6 10 -11 2z"/>
<path d="M611 466 c-8 -10 -9 -16 -1 -21 5 -3 10 -5 11 -3 4 18 7 38 4 38 -1
0 -8 -6 -14 -14z"/>
<path d="M1083 448 c-12 -21 -12 -37 0 -45 7 -3 9 -3 5 1 -8 10 14 36 24 29 4
-2 5 3 2 11 -7 19 -20 20 -31 4z"/>
<path d="M170 411 c0 -6 4 -13 10 -16 6 -3 7 1 4 9 -7 18 -14 21 -14 7z"/>
<path d="M535 410 c-4 -6 -10 -8 -14 -6 -4 3 -8 -5 -8 -17 -2 -22 -2 -22 13
-2 9 11 20 19 25 17 6 -1 8 2 4 8 -8 13 -12 13 -20 0z"/>
<path d="M844 414 c3 -3 -6 -16 -20 -29 -19 -18 -32 -21 -66 -18 -24 3 -52 4
-62 4 -11 0 -26 8 -33 17 -8 9 -11 11 -7 3 16 -32 12 -59 -13 -72 -20 -11 -26
-11 -32 0 -7 11 -9 11 -13 0 -4 -12 -8 -11 -23 1 -13 10 -16 11 -11 2 6 -11
-1 -13 -36 -11 -24 2 -50 -1 -57 -5 -7 -5 -18 -1 -27 10 -8 12 -13 13 -12 5 2
-7 -3 -16 -11 -19 -8 -2 -11 0 -7 6 4 6 -3 6 -18 -1 -14 -7 -23 -14 -20 -16 6
-6 146 -11 297 -10 91 0 134 -4 145 -13 10 -8 13 -9 9 -1 -11 18 26 21 47 4
11 -9 16 -10 12 -3 -7 12 7 17 29 12 12 -3 45 -1 125 10 8 1 4 5 -10 9 -14 4
-24 13 -22 20 1 7 -2 10 -8 6 -6 -3 -8 -10 -5 -15 5 -9 -63 -5 -73 4 -3 3 -12
0 -20 -7 -13 -10 -14 -9 -10 3 3 9 16 14 32 13 14 -1 26 2 26 8 0 5 5 9 11 9
5 0 7 -4 4 -10 -3 -6 1 -7 9 -4 9 3 14 10 11 14 -3 5 0 12 6 16 8 4 9 3 5 -4
-4 -7 -3 -12 3 -12 5 0 9 9 8 19 -1 12 -7 17 -17 14 -11 -3 -10 -1 3 10 12 10
14 17 8 22 -6 3 -14 -1 -17 -9 -3 -9 -10 -13 -15 -10 -5 3 -6 -1 -3 -9 3 -8 0
-18 -7 -23 -7 -4 -10 -3 -6 3 7 11 -37 28 -60 24 -7 -1 -13 4 -13 10 0 7 -3 9
-6 6 -4 -4 -1 -13 6 -22 8 -10 9 -15 2 -15 -11 0 -38 41 -33 48 2 2 0 6 -3 8
-3 2 -4 1 -2 -2z m6 -38 c0 -23 -16 -27 -17 -5 -1 10 2 19 8 19 5 0 9 -6 9
-14z m71 -13 c13 -16 12 -17 -3 -4 -10 7 -18 15 -18 17 0 8 8 3 21 -13z m-186
-34 c4 7 12 8 18 3 12 -8 19 -8 80 1 17 3 26 0 24 -7 -2 -6 -33 -12 -75 -12
-61 -2 -72 1 -72 15 0 13 2 13 9 2 6 -9 10 -10 16 -2z m146 -16 c-8 -15 -10
-15 -11 -2 0 17 10 32 18 25 2 -3 -1 -13 -7 -23z m-185 8 c-8 -12 -46 -21 -46
-11 0 9 18 18 38 19 7 1 11 -3 8 -8z"/>
<path d="M315 390 c-3 -5 -1 -10 4 -10 6 0 11 5 11 10 0 6 -2 10 -4 10 -3 0
-8 -4 -11 -10z"/>
<path d="M400 397 c0 -2 6 -10 14 -16 11 -9 16 -9 22 1 4 7 4 10 -1 6 -4 -4
-14 -3 -22 3 -7 6 -13 9 -13 6z"/>
<path d="M800 390 c0 -5 -7 -7 -15 -4 -8 4 -15 2 -15 -4 0 -14 33 -8 38 6 2 7
1 12 -2 12 -3 0 -6 -4 -6 -10z"/>
</g>
</svg>
